<svg width="28" height="29" viewBox="0 0 28 29" fill="none" xmlns="http://www.w3.org/2000/svg">
<path d="M14 0.350586C6.26801 0.350586 0 6.6186 0 14.3506C0 22.0826 6.26801 28.3506 14 28.3506C21.732 28.3506 28 22.0826 28 14.3506C28 6.6186 21.732 0.350586 14 0.350586ZM8.96875 5.91162C9.2572 5.89461 9.51792 6.06702 9.71558 6.37304L11.6296 10.0029C11.8312 10.433 11.7166 10.8936 11.416 11.2009L10.5393 12.0776C10.4852 12.1518 10.4496 12.2353 10.4487 12.3271C10.7849 13.6285 11.8048 14.829 12.7046 15.6545C13.6044 16.4801 14.5715 17.5977 15.8269 17.8625C15.9821 17.9058 16.1722 17.9213 16.2832 17.8181L17.3018 16.7808C17.6533 16.5143 18.162 16.3851 18.5374 16.603H18.5544L22.0083 18.6419C22.5152 18.9596 22.5678 19.5739 22.2048 19.9475L19.8259 22.3076C19.4746 22.6679 19.0079 22.789 18.5545 22.7896C16.549 22.7295 14.6541 21.7452 13.0977 20.7337C10.5429 18.8751 8.1995 16.5699 6.72828 13.7849C6.16404 12.6171 5.50121 11.127 5.56446 9.82352C5.57011 9.33315 5.70278 8.85274 6.04812 8.53667L8.42702 6.15776C8.61233 6.00008 8.79566 5.92184 8.96875 5.91162Z" fill="url(#paint0_linear_1_396)"/>
<defs>
<linearGradient id="paint0_linear_1_396" x1="14" y1="0.350586" x2="14" y2="28.3506" gradientUnits="userSpaceOnUse">
<stop stop-color="#F3673F"/>
<stop offset="1" stop-color="#F29C2C"/>
</linearGradient>
</defs>
</svg>
